<?xml version="1.0" encoding="utf-8"?>
<svg version="1.1" id="Capa_1" x="0px" y="0px" viewBox="0 0 471.701 471.701" style="enable-background:new 0 0 471.701 471.701;" xmlns="http://www.w3.org/2000/svg">
  <g>
    <path d="M 433.601 67.001 C 408.901 42.301 376.201 28.801 341.301 28.801 C 306.401 28.801 273.601 42.401 248.901 67.101 L 236.001 80.001 L 222.901 66.901 C 198.201 42.201 165.301 28.501 130.401 28.501 C 95.601 28.501 62.801 42.101 38.201 66.701 C 13.501 91.401 -0.099 124.201 0.001 159.101 C 0.001 194.001 13.701 226.701 38.401 251.401 L 226.201 439.201 C 228.801 441.801 232.301 443.201 235.701 443.201 C 239.101 443.201 242.601 441.901 245.201 439.301 L 433.401 251.801 C 458.101 227.101 471.701 194.301 471.701 159.401 C 471.801 124.501 458.301 91.701 433.601 67.001 Z M 414.401 232.701 L 234.887 82.933 L 57.401 232.401 C 37.801 212.801 87.261 275.97 87.261 248.27 C 87.261 220.57 135.421 216.964 155.021 197.464 C 174.521 177.964 176.905 171.643 204.505 171.643 C 232.205 171.643 191.53 99.789 211.13 119.389 L 226.401 108.601 C 231.701 113.901 242.644 190.041 247.944 184.741 L 267.901 86.201 C 287.501 66.601 215.067 129.498 242.667 129.498 C 270.267 129.498 165.617 243.668 185.167 263.218 C 204.767 282.818 381.737 209.584 372.226 256.306 C 362.715 303.028 434.001 213.101 414.401 232.701 Z" style="fill: rgb(242, 176, 197);"/>
  </g>
  <g/>
  <g/>
  <g/>
  <g/>
  <g/>
  <g/>
  <g/>
  <g/>
  <g/>
  <g/>
  <g/>
  <g/>
  <g/>
  <g/>
  <g/>
</svg>